<svg width="100%" viewBox="0 0 760 860" xmlns="http://www.w3.org/2000/svg" role="img" aria-labelledby="title desc">
  <title id="title">Agent &#29366;&#24577;&#31649;&#29702;&#26550;&#26500;&#22270;</title>
  <desc id="desc">&#23637;&#31034;&#20219;&#21153;&#35268;&#21010;&#22120;&#12289;&#20219;&#21153;&#29366;&#24577;&#23545;&#35937;&#12289;&#19978;&#19979;&#25991;&#26500;&#24314;&#22120;&#12289;&#24037;&#20316;&#35760;&#24518;&#12289;&#24037;&#20855;&#25509;&#21475;&#23618;&#12289;&#24773;&#33410;&#35760;&#24518;&#19982;&#35821;&#20041;&#35760;&#24518;&#20043;&#38388;&#20851;&#31995;&#30340;&#26550;&#26500;&#22270;&#12290;</desc>
  <defs>
    <marker id="arrow" viewBox="0 0 10 10" refX="8" refY="5" markerWidth="6" markerHeight="6" orient="auto-start-reverse">
      <path d="M1 1 L9 5 L1 9" fill="none" stroke="#73726c" stroke-width="1.5" stroke-linecap="round" stroke-linejoin="round" />
    </marker>
    <style>
      .label {
        font-family: -apple-system, BlinkMacSystemFont, "Segoe UI", sans-serif;
        text-anchor: middle;
      }
      .title {
        font-size: 16px;
        font-weight: 700;
      }
      .body {
        font-size: 12px;
      }
      .muted {
        fill: #6b6a65;
      }
      .line {
        stroke: #73726c;
        stroke-width: 1.6;
        fill: none;
        marker-end: url(#arrow);
      }
      .soft-line {
        stroke: #9a9891;
        stroke-width: 1.2;
        fill: none;
        marker-end: url(#arrow);
      }
      .dashed {
        stroke-dasharray: 5 5;
      }
    </style>
  </defs>

  <rect x="250" y="24" width="260" height="56" rx="10" fill="#f1efe8" stroke="#5f5e5a" stroke-width="1" />
  <text class="label title" x="380" y="48" fill="#444441">&#20219;&#21153;&#35268;&#21010;&#22120;</text>
  <text class="label body muted" x="380" y="68">&#20219;&#21153;&#24320;&#22987;&#26102;&#29983;&#25104;&#32467;&#26500;&#21270;&#35745;&#21010;</text>

  <path class="line" d="M380 80 L380 116" />

  <rect x="56" y="116" width="648" height="286" rx="16" fill="#eeedfe" stroke="#534ab7" stroke-width="1.2" />
  <text class="label title" x="380" y="146" fill="#3c3489">Agent &#29366;&#24577;&#31649;&#29702;&#26680;&#24515;</text>

  <rect x="84" y="170" width="176" height="68" rx="10" fill="#eeedfe" stroke="#534ab7" stroke-width="1" />
  <text class="label title" x="172" y="198" fill="#3c3489">&#20219;&#21153;&#29366;&#24577;&#23545;&#35937;</text>
  <text class="label body" x="172" y="218" fill="#534ab7">&#30446;&#26631;&#12289;&#24403;&#21069;&#28966;&#28857;&#12289;&#24050;&#23436;&#25104;&#27493;&#39588;</text>

  <rect x="292" y="170" width="176" height="68" rx="10" fill="#eeedfe" stroke="#534ab7" stroke-width="1" />
  <text class="label title" x="380" y="198" fill="#3c3489">&#19978;&#19979;&#25991;&#26500;&#24314;&#22120;</text>
  <text class="label body" x="380" y="218" fill="#534ab7">&#35009;&#21098;&#12289;&#21387;&#32553;&#12289;&#32452;&#35013;&#28040;&#24687;</text>

  <rect x="500" y="170" width="176" height="68" rx="10" fill="#eeedfe" stroke="#534ab7" stroke-width="1" />
  <text class="label title" x="588" y="198" fill="#3c3489">&#24037;&#20316;&#35760;&#24518;</text>
  <text class="label body" x="588" y="218" fill="#534ab7">&#24403;&#21069; messages &#28369;&#21160;&#31383;&#21475;</text>

  <path class="line" d="M260 204 L292 204" />
  <path class="line" d="M468 204 L500 204" />

  <rect x="176" y="276" width="220" height="72" rx="10" fill="#e1f5ee" stroke="#0f6e56" stroke-width="1" />
  <text class="label title" x="286" y="304" fill="#085041">&#27169;&#22411;&#25512;&#29702;&#24490;&#29615;</text>
  <text class="label body" x="286" y="324" fill="#0f6e56">&#22522;&#20110;&#24037;&#20316;&#35760;&#24518;&#32487;&#32493;&#20915;&#31574;</text>

  <rect x="416" y="276" width="220" height="72" rx="10" fill="#e1f5ee" stroke="#0f6e56" stroke-width="1" />
  <text class="label title" x="526" y="304" fill="#085041">&#24037;&#20855;&#25509;&#21475;&#23618;</text>
  <text class="label body" x="526" y="324" fill="#0f6e56">&#25191;&#34892; tool call / &#36820;&#22238;&#32467;&#26524;</text>

  <path class="line" d="M588 238 L588 276" />
  <path class="line" d="M396 312 L416 312" />
  <path class="soft-line" d="M526 276 L526 250 L380 250 L380 238" />
  <path class="soft-line dashed" d="M588 238 L664 238 L664 312" />
  <text class="label body muted" x="684" y="278" transform="rotate(-90 684 278)">&#21407;&#22987;&#24037;&#20855;&#32467;&#26524;</text>

  <path class="line" d="M526 348 L526 402" />
  <path class="line" d="M286 402 L286 348" />

  <rect x="56" y="402" width="648" height="92" rx="14" fill="#faece7" stroke="#993c1d" stroke-width="1.2" />
  <text class="label title" x="380" y="432" fill="#712b13">&#26816;&#26597;&#28857;&#19982;&#29366;&#24577;&#26356;&#26032;</text>
  <text class="label body" x="380" y="454" fill="#993c1d">&#26356;&#26032;&#24050;&#23436;&#25104;&#27493;&#39588;&#12289;&#20851;&#38190;&#21457;&#29616;&#12289;&#20915;&#31574;&#19982;&#38459;&#30861;&#65292;&#24182;&#21028;&#26029;&#26159;&#21542;&#38656;&#35201;&#37325;&#35268;&#21010;</text>

  <path class="line" d="M220 494 L220 544" />
  <path class="line" d="M280 544 L280 494" />
  <path class="line" d="M540 494 L540 544" />
  <path class="line" d="M600 544 L600 494" />

  <rect x="56" y="544" width="324" height="76" rx="12" fill="#f1efe8" stroke="#5f5e5a" stroke-width="1" />
  <text class="label title" x="218" y="574" fill="#444441">&#24773;&#33410;&#35760;&#24518;</text>
  <text class="label body muted" x="218" y="596">&#23384;&#20648;&#23436;&#25972;&#25191;&#34892;&#36712;&#36857;&#12289;&#24037;&#20855;&#32467;&#26524;&#12289;&#38169;&#35823;&#19982; API &#21709;&#24212;</text>

  <rect x="424" y="544" width="280" height="76" rx="12" fill="#e6f1fb" stroke="#185fa5" stroke-width="1" />
  <text class="label title" x="564" y="574" fill="#0c447c">&#35821;&#20041;&#35760;&#24518;&#26816;&#32034;</text>
  <text class="label body" x="564" y="596" fill="#185fa5">&#31283;&#23450;&#30693;&#35782;&#12289;&#29992;&#25143;&#20559;&#22909;&#19982;&#39033;&#30446;&#37197;&#32622;</text>

  <path class="line" d="M500 620 L500 682" />
  <path class="line" d="M628 620 L628 682" />

  <rect x="424" y="682" width="152" height="88" rx="10" fill="#e6f1fb" stroke="#185fa5" stroke-width="1" />
  <text class="label title" x="500" y="714" fill="#0c447c">&#24773;&#33410;&#35760;&#24518;&#26816;&#32034;</text>
  <text class="label body" x="500" y="736" fill="#185fa5">&#25353;&#20851;&#38190;&#35789;&#25110;&#21521;&#37327;</text>
  <text class="label body" x="500" y="754" fill="#185fa5">&#21462;&#22238;&#30456;&#20851;&#21382;&#21490;&#29255;&#27573;</text>

  <rect x="596" y="682" width="132" height="88" rx="10" fill="#e6f1fb" stroke="#185fa5" stroke-width="1" />
  <text class="label title" x="662" y="714" fill="#0c447c">&#35821;&#20041;&#35760;&#24518;</text>
  <text class="label body" x="662" y="736" fill="#185fa5">&#39033;&#30446;&#30693;&#35782;</text>
  <text class="label body" x="662" y="754" fill="#185fa5">&#29992;&#25143;&#20559;&#22909; / &#35268;&#21017;</text>

  <path class="soft-line dashed" d="M704 582 L736 582 L736 204 L676 204" />
  <text class="label body muted" x="742" y="392" transform="rotate(-90 742 392)">&#25353;&#38656;&#27880;&#20837;&#24037;&#20316;&#35760;&#24518;</text>
</svg>
